<?xml version="1.0" encoding="UTF-8"?>
<svg id="Layer_1" data-name="Layer 1" xmlns="http://www.w3.org/2000/svg" viewBox="0 0 97.47 172.77" aria-hidden="true">
  <path d="M52.28,155.02l-7.08.06v-8.68s-6.98,0-6.98,0l-.04,8.63h-7.06s-.04-8.63-.04-8.63l-6.97-.02v8.67s-8.73-.02-8.73-.02c2.45-3.23,4.28-6.53,6.03-10.16,3.73-7.74,6.54-15.67,9.15-23.91,3.43-11.07,6.2-22.11,8.68-33.59h18.98c2.57,11.87,5.47,23.43,9.12,34.96,2.52,7.79,5.21,15.29,8.76,22.62,1.74,3.59,3.54,6.86,5.97,10.06h-8.75s-.04-8.62-.04-8.62l-6.85-.03-.09,8.67h-7.03s-.09-8.67-.09-8.67l-6.89.02-.04,8.6Z" fill="#ffffff"/>
  <path d="M83.66,159.33c7.71-.18,13.9,5.9,13.8,13.44H0c-.15-7.34,5.87-13.41,13.34-13.44h70.32Z" fill="#ffffff"/>
  <path d="M69.61,20.09c-.39,2.64.66,5.62-.14,8.29l-8.2,27.34-25.06-.02-8.33-27.28,16.62-.04.05-8.28,8.37-.02.06,8.3h8.19s.04-8.3.04-8.3h8.4Z" fill="#ffffff"/>
  <path d="M69.24,83.03l-40.79.04c-2.33,0-3.82-2.17-3.79-4.12.04-2.31,1.86-4.06,4.22-4.03l7.29-.05.03-14.88h25.04s.03,14.91.03,14.91l7.67.02c2.14.18,3.7,1.74,3.83,3.82.11,1.8-1.15,4.29-3.54,4.29Z" fill="#ffffff"/>
  <polygon points="43.1 18.21 33.88 18.26 33.87 9.16 43.07 9.12 43.1 18.21" fill="#35b454"/>
  <polygon points="25.88 23.23 17.83 23.27 17.83 15.26 25.84 15.26 25.88 23.23" fill="#fed404"/>
  <polygon points="27.95 6.02 21.87 6.12 21.83 .03 27.9 0 27.95 6.02" fill="#ec1d25"/>
</svg>
