<?xml version="1.0" encoding="UTF-8"?><svg id="Layer_1" xmlns="http://www.w3.org/2000/svg" viewBox="0 0 543.92 172.85"><polygon points="271.96 -316.41 -578.04 -316.41 -578.04 489.26 271.96 489.26 1121.96 489.26 1121.96 -316.41 271.96 -316.41" fill="#f7f6f5"/><path d="M159.83,70.09s-12.95-1.76-19.54-1.76-9.55,1.54-9.55,6.04c0,3.62,2.31,4.61,13.06,6.48,13.17,2.3,17.89,5.6,17.89,16.58,0,12.84-8.12,17.45-21.73,17.45-7.57,0-20.31-2.41-20.31-2.41l.44-9.99s13.17,1.76,18.77,1.76c7.9,0,10.98-1.65,10.98-6.48,0-3.84-1.87-5.05-12.73-6.81-12.07-1.98-18.22-4.61-18.22-16.25,0-12.4,9.66-17.01,20.53-17.01,8.01,0,20.64,2.42,20.64,2.42l-.22,9.99Z" fill="#2c5464"/><path d="M187.6,68.99v24.15c0,8.23.33,11.09,6.04,11.09,3.07,0,9-.33,9-.33l.55,9.55s-7.35,1.43-11.2,1.43c-12.4,0-16.25-4.61-16.25-20.42v-25.47h-7.03v-10.21h7.03v-15.92h11.86v15.92h15.15v10.21h-15.15Z" fill="#2c5464"/><path d="M212.52,58.78h11.86v6.59s9.33-6.04,18.66-7.79v11.97c-9.99,1.98-18.55,5.82-18.55,5.82v38.31h-11.97v-54.89Z" fill="#2c5464"/><path d="M292.76,100.72c.22,3.29,1.65,4.61,4.83,5.05l-.33,9.11c-6.7,0-10.54-.88-14.6-4.06,0,0-8.78,4.06-17.67,4.06-10.87,0-16.36-6.04-16.36-17.45s6.37-15.59,18.11-16.58l14.16-1.21v-3.95c0-6.04-2.63-7.9-8.01-7.9-7.35,0-20.64,1.1-20.64,1.1l-.44-8.45s11.97-2.85,22.06-2.85c13.39,0,18.88,5.6,18.88,18.11v25.03ZM268.17,89.3c-5.05.44-7.57,2.85-7.57,7.79s2.09,8.01,6.7,8.01c6.26,0,13.61-2.42,13.61-2.42v-14.6l-12.73,1.21Z" fill="#2c5464"/><path d="M322.18,68.99v24.15c0,8.23.33,11.09,6.04,11.09,3.07,0,9-.33,9-.33l.55,9.55s-7.35,1.43-11.2,1.43c-12.4,0-16.25-4.61-16.25-20.42v-25.47h-7.03v-10.21h7.03v-15.92h11.85v15.92h15.15v10.21h-15.15Z" fill="#2c5464"/><path d="M387.71,100.72c.22,3.29,1.65,4.61,4.83,5.05l-.33,9.11c-6.7,0-10.54-.88-14.6-4.06,0,0-8.78,4.06-17.67,4.06-10.87,0-16.36-6.04-16.36-17.45s6.37-15.59,18.11-16.58l14.16-1.21v-3.95c0-6.04-2.63-7.9-8.01-7.9-7.35,0-20.64,1.1-20.64,1.1l-.44-8.45s11.97-2.85,22.06-2.85c13.39,0,18.88,5.6,18.88,18.11v25.03ZM363.13,89.3c-5.05.44-7.57,2.85-7.57,7.79s2.09,8.01,6.7,8.01c6.26,0,13.61-2.42,13.61-2.42v-14.6l-12.73,1.21Z" fill="#2c5464"/><path d="M409.56,58.78l10.54,44.68h3.51l10.98-44.68h12.18l-14.27,54.89h-21.3l-14.16-54.89h12.51Z" fill="#2c5464"/><path d="M501.55,85.9c0,18.22-5.6,28.98-24.48,28.98s-24.48-10.76-24.48-28.98,6.15-28.32,24.48-28.32,24.48,10.54,24.48,28.32ZM489.47,85.9c0-12.73-2.74-18.22-12.4-18.22s-12.4,5.49-12.4,18.22,2.2,18.88,12.4,18.88,12.4-6.15,12.4-18.88Z" fill="#2c5464"/><path d="M513.41,58.78h11.86v6.59s9.33-6.04,18.66-7.79v11.97c-9.99,1.98-18.55,5.82-18.55,5.82v38.31h-11.97v-54.89Z" fill="#2c5464"/><path d="M121,145.59v-15.04h5.14c4.19,0,5.33,3.04,5.33,7.3s-1.08,7.74-5.33,7.74h-5.14ZM126.15,132.04h-3.54v12.08h3.54c3,0,3.69-3,3.69-6.26s-.69-5.82-3.69-5.82Z" fill="#8a9298"/><path d="M143.93,144.18l.04,1.28s-2.37.35-4.06.35c-3.1,0-4.12-1.89-4.12-5.58,0-4.13,1.71-5.71,4.35-5.71s4.19,1.52,4.19,5.08l-.08,1.24h-6.87c0,2.33.69,3.54,2.73,3.54,1.56,0,3.83-.2,3.83-.2ZM142.76,139.53c0-2.69-.79-3.65-2.62-3.65s-2.77,1.02-2.79,3.65h5.42Z" fill="#8a9298"/><path d="M149.36,134.73l2.44,9.45h.77l2.52-9.45h1.6l-2.94,10.86h-3.12l-2.94-10.86h1.67Z" fill="#8a9298"/><path d="M169.04,140.03c0,3.96-.94,5.78-4.46,5.78s-4.46-1.82-4.46-5.78c0-3.74,1.17-5.52,4.46-5.52s4.46,1.78,4.46,5.52ZM167.44,140.03c0-3.02-.62-4.11-2.85-4.11s-2.85,1.09-2.85,4.11.4,4.37,2.85,4.37,2.85-1.28,2.85-4.37Z" fill="#8a9298"/><path d="M181.72,134.73v10.86h-1.56v-.76s-1.56.98-3.08.98c-2.92,0-3.52-1.41-3.52-5.41v-5.67h1.56v5.65c0,3,.25,3.98,2.19,3.98,1.54,0,2.85-.8,2.85-.8v-8.82h1.56Z" fill="#8a9298"/><path d="M186.8,134.73h1.54v1.48s1.81-1.3,3.81-1.72v1.65c-1.96.41-3.79,1.48-3.79,1.48v7.97h-1.56v-10.86Z" fill="#8a9298"/><path d="M201.52,130.56h10.41v1.5h-4.39v13.54h-1.58v-13.54h-4.44v-1.5Z" fill="#8a9298"/><path d="M215.78,145.59v-15.6h1.56v5.35s1.67-.83,3.21-.83c2.85,0,3.52,1.48,3.52,5.35v5.74h-1.56v-5.69c0-2.87-.31-3.93-2.23-3.93-1.48,0-2.94.65-2.94.65v8.97h-1.56Z" fill="#8a9298"/><path d="M236.73,144.18l.04,1.28s-2.37.35-4.06.35c-3.1,0-4.12-1.89-4.12-5.58,0-4.13,1.71-5.71,4.35-5.71s4.19,1.52,4.19,5.08l-.08,1.24h-6.87c0,2.33.69,3.54,2.73,3.54,1.56,0,3.83-.2,3.83-.2ZM235.56,139.53c0-2.69-.79-3.65-2.62-3.65s-2.77,1.02-2.79,3.65h5.42Z" fill="#8a9298"/><path d="M248.57,145.59v-15.04h5.14c4.19,0,5.33,3.04,5.33,7.3s-1.08,7.74-5.33,7.74h-5.14ZM253.72,132.04h-3.54v12.08h3.54c3,0,3.69-3,3.69-6.26s-.69-5.82-3.69-5.82Z" fill="#8a9298"/><path d="M271.17,143.57c.04.63.54.87,1.21.96l-.06,1.28c-1.1,0-1.85-.22-2.48-.87,0,0-1.87.87-3.75.87s-2.94-1.13-2.94-3.32,1.04-3,3.19-3.22l3.27-.33v-.93c0-1.52-.62-2.06-1.88-2.06-1.46,0-3.94.28-3.94.28l-.06-1.24s2.29-.48,4.08-.48c2.35,0,3.35,1.13,3.35,3.5v5.56ZM266.52,140.49c-1.27.13-1.77.76-1.77,1.96,0,1.26.52,2,1.58,2,1.54,0,3.27-.67,3.27-.67v-3.58l-3.08.3Z" fill="#8a9298"/><path d="M278.41,136.14v5.19c0,2.37.15,3.04,1.5,3.04.58,0,1.85-.13,1.85-.13l.1,1.35s-1.4.24-2.12.24c-2.14,0-2.87-.85-2.87-3.98v-5.71h-1.48v-1.41h1.48v-3.32h1.54v3.32h3.31v1.41h-3.31Z" fill="#8a9298"/><path d="M293.07,143.57c.04.63.54.87,1.21.96l-.06,1.28c-1.1,0-1.85-.22-2.48-.87,0,0-1.87.87-3.75.87s-2.94-1.13-2.94-3.32,1.04-3,3.19-3.22l3.27-.33v-.93c0-1.52-.62-2.06-1.88-2.06-1.46,0-3.94.28-3.94.28l-.06-1.24s2.29-.48,4.08-.48c2.35,0,3.35,1.13,3.35,3.5v5.56ZM288.42,140.49c-1.27.13-1.77.76-1.77,1.96,0,1.26.52,2,1.58,2,1.54,0,3.27-.67,3.27-.67v-3.58l-3.08.3Z" fill="#8a9298"/><path d="M298.13,143.12h1.71v2.48h-1.71v-2.48Z" fill="#8a9298"/><path d="M311.74,145.59v-15.04h5.14c4.19,0,5.33,3.04,5.33,7.3s-1.08,7.74-5.33,7.74h-5.14ZM316.89,132.04h-3.54v12.08h3.54c3,0,3.69-3,3.69-6.26s-.69-5.82-3.69-5.82Z" fill="#8a9298"/><path d="M334.67,144.18l.04,1.28s-2.37.35-4.06.35c-3.1,0-4.12-1.89-4.12-5.58,0-4.13,1.71-5.71,4.35-5.71s4.19,1.52,4.19,5.08l-.08,1.24h-6.87c0,2.33.69,3.54,2.73,3.54,1.56,0,3.83-.2,3.83-.2ZM333.5,139.53c0-2.69-.79-3.65-2.62-3.65s-2.77,1.02-2.79,3.65h5.42Z" fill="#8a9298"/><path d="M339.71,129.99h1.56v15.6h-1.56v-15.6Z" fill="#8a9298"/><path d="M346.47,130.38h1.56v1.89h-1.56v-1.89ZM346.47,134.73h1.56v10.86h-1.56v-10.86Z" fill="#8a9298"/><path d="M353.8,134.73l2.44,9.45h.77l2.52-9.45h1.6l-2.94,10.86h-3.12l-2.94-10.86h1.67Z" fill="#8a9298"/><path d="M372.71,144.18l.04,1.28s-2.37.35-4.06.35c-3.1,0-4.12-1.89-4.12-5.58,0-4.13,1.71-5.71,4.35-5.71s4.19,1.52,4.19,5.08l-.08,1.24h-6.87c0,2.33.69,3.54,2.73,3.54,1.56,0,3.83-.2,3.83-.2ZM371.54,139.53c0-2.69-.79-3.65-2.62-3.65s-2.77,1.02-2.79,3.65h5.42Z" fill="#8a9298"/><path d="M377.62,134.73h1.54v1.48s1.81-1.3,3.81-1.72v1.65c-1.96.41-3.79,1.48-3.79,1.48v7.97h-1.56v-10.86Z" fill="#8a9298"/><path d="M392.34,130.56h10.41v1.5h-4.39v13.54h-1.58v-13.54h-4.44v-1.5Z" fill="#8a9298"/><path d="M406.61,145.59v-15.6h1.56v5.35s1.67-.83,3.21-.83c2.85,0,3.52,1.48,3.52,5.35v5.74h-1.56v-5.69c0-2.87-.31-3.93-2.23-3.93-1.48,0-2.94.65-2.94.65v8.97h-1.56Z" fill="#8a9298"/><path d="M427.55,144.18l.04,1.28s-2.37.35-4.06.35c-3.1,0-4.12-1.89-4.12-5.58,0-4.13,1.71-5.71,4.35-5.71s4.19,1.52,4.19,5.08l-.08,1.24h-6.87c0,2.33.69,3.54,2.73,3.54,1.56,0,3.83-.2,3.83-.2ZM426.39,139.53c0-2.69-.79-3.65-2.62-3.65s-2.77,1.02-2.79,3.65h5.42Z" fill="#8a9298"/><path d="M447.48,132.17s-2.89-.37-4.1-.37c-2.04,0-3.12.76-3.12,2.46,0,1.96,1,2.28,3.52,2.87,2.87.67,4.14,1.41,4.14,4.04,0,3.32-1.75,4.63-4.6,4.63-1.71,0-4.56-.48-4.56-.48l.17-1.39s2.83.39,4.31.39c2.04,0,3.08-.93,3.08-3.02,0-1.69-.85-2.17-3.21-2.65-2.98-.67-4.48-1.41-4.48-4.28s1.83-4.04,4.64-4.04c1.71,0,4.35.43,4.35.43l-.15,1.41Z" fill="#8a9298"/><path d="M454.39,136.14v5.19c0,2.37.15,3.04,1.5,3.04.58,0,1.85-.13,1.85-.13l.1,1.35s-1.4.24-2.12.24c-2.14,0-2.87-.85-2.87-3.98v-5.71h-1.48v-1.41h1.48v-3.32h1.54v3.32h3.31v1.41h-3.31Z" fill="#8a9298"/><path d="M461.7,134.73h1.54v1.48s1.81-1.3,3.81-1.72v1.65c-1.96.41-3.79,1.48-3.79,1.48v7.97h-1.56v-10.86Z" fill="#8a9298"/><path d="M478.34,143.57c.04.63.54.87,1.21.96l-.06,1.28c-1.1,0-1.85-.22-2.48-.87,0,0-1.87.87-3.75.87s-2.94-1.13-2.94-3.32,1.04-3,3.19-3.22l3.27-.33v-.93c0-1.52-.62-2.06-1.88-2.06-1.46,0-3.94.28-3.94.28l-.06-1.24s2.29-.48,4.08-.48c2.35,0,3.35,1.13,3.35,3.5v5.56ZM473.69,140.49c-1.27.13-1.77.76-1.77,1.96,0,1.26.52,2,1.58,2,1.54,0,3.27-.67,3.27-.67v-3.58l-3.08.3Z" fill="#8a9298"/><path d="M485.58,136.14v5.19c0,2.37.15,3.04,1.5,3.04.58,0,1.85-.13,1.85-.13l.1,1.35s-1.4.24-2.12.24c-2.14,0-2.87-.85-2.87-3.98v-5.71h-1.48v-1.41h1.48v-3.32h1.54v3.32h3.31v1.41h-3.31Z" fill="#8a9298"/><path d="M500.58,144.18l.04,1.28s-2.37.35-4.06.35c-3.1,0-4.12-1.89-4.12-5.58,0-4.13,1.71-5.71,4.35-5.71s4.19,1.52,4.19,5.08l-.08,1.24h-6.87c0,2.33.69,3.54,2.73,3.54,1.56,0,3.83-.2,3.83-.2ZM499.41,139.53c0-2.69-.79-3.65-2.62-3.65s-2.77,1.02-2.79,3.65h5.42Z" fill="#8a9298"/><path d="M505.03,147.42c0-1.26.56-1.85,1.65-2.69-.38-.26-.58-.83-.58-1.5,0-.41.71-1.72.71-1.72-.87-.41-1.65-1.28-1.65-3.28,0-2.67,1.58-3.72,3.9-3.72,1.04,0,2.17.28,2.17.28l3.08-.09v1.39l-1.98-.04c.4.41.69,1.02.69,2.17,0,2.83-1.35,3.67-4.02,3.67-.21,0-.79-.04-1.02-.09,0,0-.38.96-.38,1.24,0,.87.17,1,2.52,1,2.96,0,4.02.61,4.02,3.19s-1.69,3.46-4.62,3.46c-3.29,0-4.48-.76-4.48-3.28ZM507.74,145.38c-.88.67-1.17,1.06-1.17,1.91,0,1.5.6,2.04,2.96,2.04,2.08,0,3.02-.59,3.02-2.02,0-1.65-.67-1.83-2.56-1.83-.73,0-2.25-.11-2.25-.11ZM511.44,138.23c0-1.72-.65-2.39-2.39-2.39-1.62,0-2.33.67-2.33,2.39s.71,2.37,2.33,2.37c1.75,0,2.39-.65,2.39-2.37Z" fill="#8a9298"/><path d="M518.85,134.73l2.6,9.45h.69l2.62-9.45h1.56l-4.33,15.69h-1.56l1.35-4.82h-1.54l-2.96-10.86h1.56Z" fill="#8a9298"/><rect x="36.28" y="60.05" width="24.99" height="16.38" fill="#2c5464"/><rect x="24.72" y="75" width="48.11" height="8.12" rx="4.06" ry="4.06" fill="#2c5464"/><path d="M13.35,159.51h70.86c7.37,0,13.35,5.98,13.35,13.35H0C0,165.49,5.98,159.51,13.35,159.51Z" fill="#2c5464"/><path d="M52.3,146.46h7.05v8.67h7.05v-8.67h7.05v8.67h8.7s-12.03-12.65-23.9-67.63h-18.93c-11.87,54.98-23.9,67.63-23.9,67.63h8.7v-8.67h7.05v8.67h7.05v-8.67h7.05v8.67h7.05v-8.67Z" fill="#2c5464"/><rect x="17.88" y="15.26" width="8" height="8" fill="#ffd400"/><rect x="33.96" y="9.11" width="9.15" height="9.15" fill="#36b555"/><rect x="21.88" width="6.07" height="6.07" fill="#ed1c24"/><polygon points="61.27 20.09 61.27 28.43 52.94 28.43 52.94 20.09 44.61 20.09 44.61 28.43 27.95 28.43 36.28 55.68 48.78 55.68 61.27 55.68 69.6 28.43 69.6 20.09 61.27 20.09" fill="#2c5464"/></svg>