<svg xmlns="http://www.w3.org/2000/svg" viewBox="0 0 64 64" fill="none"><rect x="8" y="6" width="34" height="44" rx="4" stroke="#fff" stroke-width="1.5" opacity="0.4"/><rect x="8" y="6" width="34" height="10" rx="4" fill="#fff" opacity="0.04"/><circle cx="13" cy="11" r="1.2" fill="#E30613" opacity="0.4"/><circle cx="17.5" cy="11" r="1.2" fill="#FFD500" opacity="0.4"/><circle cx="22" cy="11" r="1.2" fill="#38AB45" opacity="0.4"/><rect x="14" y="22" width="4" height="12" rx="1" fill="#fff" opacity="0.08"/><rect x="20" y="26" width="4" height="8" rx="1" fill="#fff" opacity="0.1"/><rect x="26" y="20" width="4" height="14" rx="1" fill="#fff" opacity="0.15"/><rect x="32" y="24" width="4" height="10" rx="1" fill="#fff" opacity="0.1"/><path d="M14 39h22" stroke="#fff" stroke-width="1.2" stroke-linecap="round" opacity="0.15"/><path d="M14 43h16" stroke="#fff" stroke-width="1.2" stroke-linecap="round" opacity="0.1"/><rect x="12" y="24.5" width="1.5" height="3" rx="0.75" fill="#38AB45" opacity="0.4"/><path d="M28 19v-3" stroke="#38AB45" stroke-width="1.3" stroke-linecap="round" opacity="0.5"/><path d="M26.5 16h3" stroke="#38AB45" stroke-width="1" stroke-linecap="round" opacity="0.4"/><rect x="44" y="4" width="18" height="16" rx="3.5" stroke="#fff" stroke-width="1.2" opacity="0.3"/><text x="53" y="15" text-anchor="middle" font-family="IBM Plex Sans,sans-serif" font-weight="700" font-size="8" fill="#fff" opacity="0.4">AI</text><path d="M48 4v-2.5M51 4v-2.5M55 4v-2.5M58 4v-2.5" stroke="#fff" stroke-width="0.7" stroke-linecap="round" opacity="0.12"/><path d="M48 20v2.5M51 20v2.5M55 20v2.5M58 20v2.5" stroke="#fff" stroke-width="0.7" stroke-linecap="round" opacity="0.12"/><path d="M44 14h-4q-2 0-2 2v8" stroke="#fff" stroke-width="0.8" stroke-dasharray="2 2" opacity="0.12"/><circle cx="50" cy="34" r="2.5" stroke="#fff" stroke-width="0.8" opacity="0.1"/><circle cx="58" cy="38" r="2.5" stroke="#fff" stroke-width="0.8" opacity="0.1"/><path d="M47 54h4l1.5-3.5 1.5 7 1.5-5 1.5 3.5h4" stroke="#fff" stroke-width="1" stroke-linecap="round" stroke-linejoin="round" opacity="0.15"/></svg>