<svg xmlns="http://www.w3.org/2000/svg" viewBox="0 0 64 64" fill="none"><rect x="6" y="4" width="42" height="50" rx="3.5" stroke="#395460" stroke-width="1.4" fill="#fff"/><rect x="6" y="4" width="42" height="8" rx="3.5" fill="#395460" opacity="0.04"/><circle cx="12" cy="8" r="1.2" fill="#E30613" opacity="0.25"/><circle cx="16.5" cy="8" r="1.2" fill="#FFD500" opacity="0.3"/><circle cx="21" cy="8" r="1.2" fill="#38AB45" opacity="0.3"/><rect x="22" y="16" width="22" height="8" rx="3.5" fill="#395460" opacity="0.06"/><path d="M26 20h14" stroke="#395460" stroke-width="1" stroke-linecap="round" opacity="0.25"/><rect x="10" y="28" width="28" height="16" rx="3.5" stroke="#395460" stroke-width="0.7" opacity="0.08" fill="#395460" opacity="0.015"/><path d="M15 33h20" stroke="#395460" stroke-width="0.9" stroke-linecap="round" opacity="0.2"/><path d="M15 37h14" stroke="#395460" stroke-width="0.8" stroke-linecap="round" opacity="0.12"/><path d="M15 41h11" stroke="#395460" stroke-width="0.8" stroke-linecap="round" opacity="0.1"/><rect x="29" y="35" width="8" height="3" rx="1.2" fill="#38AB45" opacity="0.12"/><circle cx="17" cy="41" r="1.2" fill="#E30613" opacity="0.18"/><rect x="10" y="48" width="34" height="6" rx="3" stroke="#395460" stroke-width="0.8" opacity="0.1" fill="#fff"/><path d="M15 51h12" stroke="#395460" stroke-width="0.8" stroke-linecap="round" opacity="0.12"/><path d="M28 49v4" stroke="#395460" stroke-width="0.7" stroke-linecap="round" opacity="0.18"/></svg>