<svg xmlns="http://www.w3.org/2000/svg" viewBox="0 0 64 64" fill="none"><rect x="18" y="4" width="28" height="38" rx="3" stroke="#395460" stroke-width="1" opacity="0.1" fill="#fff"/><rect x="14" y="8" width="28" height="38" rx="3" stroke="#395460" stroke-width="1.2" opacity="0.18" fill="#fff"/><rect x="10" y="12" width="28" height="38" rx="3" stroke="#395460" stroke-width="1.5" fill="#fff"/><rect x="10" y="12" width="28" height="7.5" rx="3" fill="#395460" opacity="0.05"/><path d="M15 17h10" stroke="#395460" stroke-width="1.1" stroke-linecap="round" opacity="0.3"/><path d="M15 23h7" stroke="#395460" stroke-width="0.9" stroke-linecap="round" opacity="0.25"/><path d="M27 23h3" stroke="#395460" stroke-width="0.9" stroke-linecap="round" opacity="0.15"/><path d="M15 27h5" stroke="#395460" stroke-width="0.9" stroke-linecap="round" opacity="0.18"/><path d="M15 31h8" stroke="#395460" stroke-width="0.9" stroke-linecap="round" opacity="0.18"/><path d="M15 35h6" stroke="#395460" stroke-width="1.1" stroke-linecap="round" opacity="0.3"/><rect x="15" y="39" width="8" height="3" rx="1.2" fill="#38AB45" opacity="0.12"/><rect x="27" y="39" width="6.5" height="3" rx="1.2" fill="#E30613" opacity="0.1"/><rect x="15" y="44" width="6.5" height="3" rx="1.2" fill="#FFD500" opacity="0.14"/><rect x="27" y="44" width="8" height="3" rx="1.2" fill="#38AB45" opacity="0.12"/><circle cx="46" cy="16" r="8" fill="#fff" stroke="#38AB45" stroke-width="1.3" opacity="0.7"/><path d="M42 16l2.5 2.5 5-5" stroke="#38AB45" stroke-width="1.5" stroke-linecap="round" stroke-linejoin="round" opacity="0.6"/><circle cx="50" cy="42" r="6.5" stroke="#395460" stroke-width="1" opacity="0.12" fill="#fff"/><path d="M50 39v3l2 2" stroke="#395460" stroke-width="1" stroke-linecap="round" opacity="0.25"/></svg>