<svg xmlns="http://www.w3.org/2000/svg" viewBox="0 0 64 64" fill="none"><rect x="4" y="6" width="44" height="40" rx="3.5" stroke="#395460" stroke-width="1.4" fill="#fff"/><rect x="4" y="6" width="44" height="7.5" rx="3.5" fill="#395460" opacity="0.04"/><path d="M10 10h10" stroke="#395460" stroke-width="1" stroke-linecap="round" opacity="0.25"/><circle cx="42" cy="10" r="2" fill="#E30613" opacity="0.15"/><circle cx="42" cy="10" r="1" fill="#E30613" opacity="0.4"/><path d="M10 40h32M10 36h32M10 32h32M10 28h32M10 24h32" stroke="#395460" stroke-width="0.4" opacity="0.05"/><path d="M10 22h32" stroke="#E30613" stroke-width="0.7" stroke-dasharray="2.5 1.5" opacity="0.2"/><path d="M12 38l5-2 5-3 5-3 5-4 4-3" stroke="#395460" stroke-width="1.2" stroke-linecap="round" stroke-linejoin="round" opacity="0.2"/><path d="M36 23l4-3" stroke="#E30613" stroke-width="1.6" stroke-linecap="round" opacity="0.4"/><circle cx="40" cy="20" r="1.2" fill="#E30613" opacity="0.35"/><path d="M12 36l5 0 5 1 5-1 5 0.5 4-0.5" stroke="#38AB45" stroke-width="0.8" stroke-linecap="round" stroke-linejoin="round" opacity="0.18"/><rect x="4" y="49" width="44" height="11" rx="3" stroke="#395460" stroke-width="1" fill="#fff"/><circle cx="12" cy="54.5" r="2" fill="#E30613" opacity="0.2"/><path d="M16 54.5h6" stroke="#395460" stroke-width="0.7" stroke-linecap="round" opacity="0.15"/><circle cx="30" cy="54.5" r="2" fill="#FFD500" opacity="0.25"/><path d="M34 54.5h5" stroke="#395460" stroke-width="0.7" stroke-linecap="round" opacity="0.15"/><circle cx="44" cy="54.5" r="2" fill="#38AB45" opacity="0.15"/></svg>