<svg xmlns="http://www.w3.org/2000/svg" viewBox="0 0 64 64" fill="none"><rect x="4" y="6" width="40" height="46" rx="3.5" stroke="#395460" stroke-width="1.4" fill="#fff"/><rect x="4" y="6" width="40" height="7.5" rx="3.5" fill="#395460" opacity="0.04"/><path d="M10 10h12" stroke="#395460" stroke-width="1" stroke-linecap="round" opacity="0.25"/><path d="M10 19h8" stroke="#395460" stroke-width="0.9" stroke-linecap="round" opacity="0.25"/><rect x="10" y="22" width="28" height="3" rx="1.5" fill="#395460" opacity="0.05"/><rect x="10" y="22" width="22" height="3" rx="1.5" fill="#38AB45" opacity="0.2"/><circle cx="32" cy="23.5" r="1.3" fill="#38AB45" opacity="0.45"/><path d="M10 30h7" stroke="#395460" stroke-width="0.9" stroke-linecap="round" opacity="0.25"/><rect x="10" y="33" width="28" height="3" rx="1.5" fill="#395460" opacity="0.05"/><rect x="10" y="33" width="14.5" height="3" rx="1.5" fill="#FFD500" opacity="0.25"/><circle cx="24.5" cy="34.5" r="1.3" fill="#FFD500" opacity="0.5"/><path d="M10 41h10" stroke="#395460" stroke-width="0.9" stroke-linecap="round" opacity="0.25"/><rect x="10" y="44" width="28" height="3" rx="1.5" fill="#395460" opacity="0.05"/><rect x="10" y="44" width="8" height="3" rx="1.5" fill="#E30613" opacity="0.15"/><circle cx="18" cy="45.5" r="1.3" fill="#E30613" opacity="0.35"/><rect x="46" y="4" width="15" height="20" rx="2.5" stroke="#395460" stroke-width="1" fill="#fff" opacity="0.7"/><rect x="48.5" y="18" width="2.5" height="5" rx="0.7" fill="#395460" opacity="0.08"/><rect x="52" y="14" width="2.5" height="9" rx="0.7" fill="#395460" opacity="0.14"/><rect x="55.5" y="9" width="2.5" height="14" rx="0.7" fill="#395460" opacity="0.22"/><path d="M49.5 16l3.5-4 3.5-4" stroke="#38AB45" stroke-width="1" stroke-linecap="round" opacity="0.4"/><rect x="45" y="30" width="18" height="13" rx="3" stroke="#395460" stroke-width="1" fill="#fff" opacity="0.65"/><text x="54" y="38" text-anchor="middle" font-family="IBM Plex Serif,serif" font-weight="700" font-size="5.5" fill="#395460" opacity="0.4">€247k</text><text x="54" y="42" text-anchor="middle" font-family="IBM Plex Sans,sans-serif" font-weight="400" font-size="3.5" fill="#38AB45" opacity="0.4">saved YTD</text></svg>