<svg xmlns="http://www.w3.org/2000/svg" viewBox="0 0 64 64" fill="none"><circle cx="32" cy="32" r="10" fill="#395460" opacity="0.06" stroke="#395460" stroke-width="1.4"/><circle cx="32" cy="32" r="5.5" fill="#395460"/><path d="M30 32h4M32 30v4" stroke="#fff" stroke-width="1.3" stroke-linecap="round"/><circle cx="32" cy="32" r="22" stroke="#395460" stroke-width="0.5" opacity="0.07" stroke-dasharray="2.5 2.5"/><path d="M14 14l11 11M8 34l14-1M16 54l10-16M50 14l-11 11M54 42l-13-6" stroke="#395460" stroke-width="0.8" opacity="0.1"/><circle cx="10" cy="10" r="6.5" fill="#fff" stroke="#395460" stroke-width="1.1" opacity="0.7"/><ellipse cx="10" cy="8" rx="3.8" ry="1.5" stroke="#395460" stroke-width="0.8" opacity="0.35"/><path d="M6.2 8v4c0 .85 1.7 1.5 3.8 1.5s3.8-.65 3.8-1.5v-4" stroke="#395460" stroke-width="0.8" opacity="0.35"/><circle cx="4" cy="34" r="6.5" fill="#fff" stroke="#395460" stroke-width="1.1" opacity="0.7"/><text x="4" y="37" text-anchor="middle" font-family="IBM Plex Serif,serif" font-weight="600" font-size="9" fill="#395460" opacity="0.3">€</text><circle cx="12" cy="56" r="6.5" fill="#fff" stroke="#395460" stroke-width="1.1" opacity="0.7"/><circle cx="12" cy="54" r="2" stroke="#395460" stroke-width="0.8" opacity="0.3"/><path d="M8.5 59.5c0-1.9 1.6-3.5 3.5-3.5s3.5 1.6 3.5 3.5" stroke="#395460" stroke-width="0.8" opacity="0.3"/><circle cx="54" cy="10" r="6.5" fill="#fff" stroke="#395460" stroke-width="1.1" opacity="0.7"/><path d="M50.5 12.5a3 3 0 012.5-4.2 3.3 3.3 0 016.2 1.6h.4a2 2 0 010 4h-7a2 2 0 01-2.1-1.4z" stroke="#395460" stroke-width="0.7" opacity="0.3"/><circle cx="56" cy="42" r="6.5" fill="#fff" stroke="#395460" stroke-width="1.1" opacity="0.7"/><rect x="52" y="38.5" width="8" height="7" rx="1.2" fill="#395460" opacity="0.04"/><rect x="53" y="39.5" width="2.4" height="1.6" rx="0.4" fill="#395460" opacity="0.2"/><rect x="56.2" y="39.5" width="2.4" height="1.6" rx="0.4" fill="#395460" opacity="0.1"/><rect x="53" y="41.8" width="2.4" height="1.6" rx="0.4" fill="#395460" opacity="0.1"/><rect x="56.2" y="41.8" width="2.4" height="1.6" rx="0.4" fill="#395460" opacity="0.2"/><circle cx="37" cy="24" r="1.5" fill="#38AB45" opacity="0.35"/></svg>