<svg xmlns="http://www.w3.org/2000/svg" width="850" height="1080" version="1.0" viewBox="0 0 637.5 810"><defs><clipPath id="a"><path d="M135 459h319v318.832H135Zm0 0"/></clipPath><clipPath id="b"><path d="M6.254 198h624.258v327H6.254Zm0 0"/></clipPath><clipPath id="c"><path d="M6.254 32.168H548V402H6.254Zm0 0"/></clipPath></defs><g clip-path="url(#a)"><path fill="#2d5465" d="M294.66 459.668c-87.594 0-159.035 71.285-159.035 159.035 0 87.594 71.285 159.035 159.035 159.035s159.035-71.285 159.035-159.035c-.156-87.594-71.441-159.035-159.035-159.035M192.777 712.977c-1.707 1.398-3.726 2.02-5.746 2.02-2.64 0-5.281-1.09-7.144-3.419-21.278-26.246-32.926-59.172-32.926-92.875 0-5.125 4.039-9.164 9.164-9.164s9.164 4.04 9.164 9.164c0 29.508 10.25 58.399 28.887 81.383 3.262 3.883 2.64 9.629-1.399 12.89m101.883 53.425c-29.664 0-58.242-8.851-82.777-25.468-4.196-2.797-5.281-8.543-2.488-12.739 2.796-4.191 8.542-5.277 12.738-2.484 21.43 14.598 46.437 22.21 72.527 22.21 5.125 0 9.164 4.036 9.164 9.161 0 5.129-4.195 9.32-9.164 9.32m29.508-148.785 5.746 77.965c.469 6.059-1.707 11.957-5.746 16.309-4.035 4.347-9.938 6.832-15.84 6.832h-27.644c-6.059 0-11.805-2.485-15.844-6.832-4.035-4.352-6.211-10.407-5.746-16.309l5.746-77.965c-15.063-9.941-24.227-26.715-24.227-45.039 0-29.664 24.227-53.89 53.89-53.89 29.665 0 53.895 24.226 53.895 53.89.153 18.324-9.007 35.098-24.23 45.04m0 0"/></g><path fill="#2d5465" d="M405.86 421.93v-65.852c0-28.73-11.18-55.91-31.528-76.258-20.344-20.343-47.367-31.527-76.254-31.527-59.484 0-107.785 48.3-107.785 107.785v66.004c15.687-.93 28.11-13.82 28.11-29.66v-34.79c0-44.573 36.343-80.917 80.917-80.917 44.575 0 80.914 36.344 80.914 80.918v34.941c0 14.91 11.184 27.336 25.625 29.356m0 0"/><path fill="#2d5465" d="M190.293 475.355c29.352-21.433 65.387-34.011 104.367-34.011 42.09 0 80.914 14.754 111.356 39.293V440.41c-24.54-2.02-43.954-22.832-43.954-47.836v-34.789c0-34.476-28.109-62.59-62.585-62.59-34.48 0-62.59 28.114-62.59 62.59v34.79c0 25.937-20.657 47.214-46.438 47.991v34.79ZM299.941 537.324c-1.707-.312-3.574-.469-5.437-.469-19.567 0-35.563 15.997-35.563 35.567 0 13.512 7.454 25.781 19.567 31.84 3.262 1.707 5.281 5.125 4.969 8.851l-6.211 83.711c-.157 1.242.464 2.02.933 2.485.309.464 1.242 1.086 2.485 1.086h27.644c1.242 0 2.02-.622 2.485-1.086.312-.465.933-1.243.933-2.485l-6.215-83.71c-.308-3.727 1.711-7.145 4.969-8.852 12.117-6.059 19.57-18.328 19.57-31.84.157-17.703-13.047-32.461-30.129-35.098M471.71 609.54c.157 3.108.157 6.058.157 9.163s0 6.059-.156 9.164h22.367c-1.09-2.797-1.555-5.902-1.555-9.164s.622-6.367 1.555-9.164ZM498.27 679.742c-1.707-2.176-4.348-3.574-7.301-3.574h-28.574c-2.176 6.21-4.66 12.426-7.457 18.328h31.683l10.094 13.2c3.418-5.282 8.387-9.317 14.445-11.184ZM519.547 506.418c-4.817 0-8.852 3.883-8.852 8.852 0 1.707.465 3.261 1.243 4.66.62.93 1.242 1.707 2.171 2.328 1.555 1.086 3.418 1.863 5.438 1.863 4.812 0 8.851-3.883 8.851-8.851 0-4.817-3.882-8.852-8.851-8.852M519.547 713.441c-2.02 0-3.883.621-5.438 1.864-2.015 1.554-3.414 4.195-3.414 6.988 0 4.816 3.883 8.855 8.852 8.855 4.812 0 8.851-3.882 8.851-8.855 0-4.969-3.882-8.852-8.851-8.852M519.547 609.852c-4.817 0-8.852 3.882-8.852 8.851 0 4.817 3.883 8.856 8.852 8.856 4.812 0 8.851-3.883 8.851-8.856 0-4.812-3.882-8.851-8.851-8.851M98.195 676.168c-2.797 0-5.59 1.242-7.3 3.574L78.004 696.36c6.058 2.02 11.183 5.903 14.445 11.18l10.25-13.2h31.684c-2.797-5.902-5.281-12.112-7.457-18.327ZM117.453 627.867c-.156-3.105-.156-6.058-.156-9.164s0-6.055.156-9.164H95.09c1.086 2.797 1.55 5.902 1.55 9.164s-.62 6.367-1.55 9.164ZM67.602 523.813h.308c.465.152 1.086.152 1.707.152s1.242 0 1.711-.153c.152 0 .465-.156.621-.156a7.74 7.74 0 0 0 2.95-1.554c2.019-1.551 3.417-4.192 3.417-6.989 0-4.812-3.882-8.851-8.851-8.851-4.817 0-8.856 3.883-8.856 8.851.157 4.348 3.11 7.922 6.993 8.7M69.617 713.441c-4.812 0-8.851 3.883-8.851 8.852 0 4.816 3.882 8.855 8.851 8.855 4.817 0 8.856-3.882 8.856-8.855-.157-4.969-4.04-8.852-8.856-8.852M69.617 627.559c4.817 0 8.856-3.883 8.856-8.856 0-4.812-3.883-8.851-8.856-8.851-4.812 0-8.851 3.882-8.851 8.851 0 4.817 4.039 8.856 8.851 8.856M101.3 541.36l-8.85-11.493c-3.419 5.281-8.388 9.32-14.446 11.184l.469.62 12.422 15.997c1.71 2.176 4.351 3.57 7.3 3.57h28.73c2.177-6.21 4.66-12.422 7.458-18.324h-31.684ZM498.27 557.824l12.89-16.617c-4.504-1.398-8.543-4.039-11.648-7.457-1.086-1.086-2.02-2.484-2.95-3.727l-2.953 3.883-7.144 9.317H454.78c2.797 5.902 5.281 12.117 7.457 18.328h28.73c2.954-.313 5.594-1.555 7.302-3.727m0 0"/><g clip-path="url(#b)"><path fill="#2d5465" d="M626.242 205.586c-3.57-4.352-9.008-6.836-14.597-6.836H86.703c-15.066 0-28.11 10.871-30.75 25.781l-49.7 282.66v5.125c1.243 6.993 7.298 12.27 14.599 12.27l23.14-.465c-.93-2.797-1.55-5.746-1.55-8.851 0-14.91 12.113-27.18 27.175-27.18 14.91 0 27.18 12.113 27.18 27.18 0 2.793-.465 5.28-1.086 7.765l50.32-.933c7.453-11.493 16.153-22.055 26.09-31.372V356.234c0-69.578 56.535-126.113 126.113-126.113 33.7 0 65.383 13.047 89.145 36.965 23.762 23.762 36.965 55.445 36.965 89.148v141.641c5.433 5.902 10.558 12.113 15.219 18.637l53.117-1.086v-.156c0-14.91 12.113-27.18 27.175-27.18 14.602 0 26.715 11.648 27.18 26.246l35.258-.621 48.3-292.445c.774-5.59-.777-11.336-4.35-15.684m0 0"/></g><g clip-path="url(#c)"><path fill="#2d5465" d="M86.703 180.426h460.645v-72.219c0-4.195-3.418-7.61-7.61-7.61h-263.25c-2.484 0-4.968-1.09-6.675-2.952l-61.348-65.383H22.559c-9.008 0-16.305 7.297-16.305 16.304V401.43l31.684-180.16c4.19-23.606 24.69-40.844 48.765-40.844m246.473-50.942h152.047c5.125 0 9.164 4.036 9.164 9.16 0 5.13-4.04 9.165-9.164 9.165H333.176c-5.125 0-9.164-4.036-9.164-9.164 0-5.125 4.195-9.16 9.164-9.16m0 0"/></g><path fill="#2d5465" d="M145.036 134.832v-1.828h1.296v1.828Zm0 0"/></svg>