<svg xmlns="http://www.w3.org/2000/svg" width="850" height="1080" version="1.0" viewBox="0 0 637.5 810"><defs><clipPath id="a"><path d="M0 23.66h631.754v622.012H0Zm0 0"/></clipPath></defs><g clip-path="url(#a)"><path fill="#2d5465" fill-rule="evenodd" d="M277.328 636.883C88.668 552.277-3.719 382.593.172 127.363c.156-11.968 9.176-21.77 21.152-23.015 46.969-4.82 89.278-30.48 115.406-69.993 4.508-6.835 11.504-10.726 19.747-10.726h319.148c8.242 0 15.398 3.89 19.91 10.726 25.977 39.512 68.438 65.176 115.246 69.993 11.977 1.246 21 11.047 21.149 23.015 3.894 255.23-88.492 424.914-277.149 509.52-25.511 11.351-51.949 11.351-77.453 0m38.727-590.856 9.175 14.93 17.262 4.2-11.508 13.374 1.399 17.574-16.328-6.687-16.332 6.687 1.394-17.574-11.512-13.375 17.266-4.199Zm0 467.832 9.175 14.926 17.262 4.203-11.508 13.371 1.399 17.575-16.328-6.688-16.332 6.688 1.394-17.575-11.512-13.37 17.266-4.204ZM548.57 279.941l9.18 14.93 17.11 4.2-11.356 13.374 1.394 17.575-16.328-6.688-16.332 6.688 1.403-17.575-11.512-13.375 17.105-4.199Zm-465.035 0 9.332 14.93 17.106 4.2-11.348 13.374 1.242 17.575-16.332-6.688-16.176 6.688 1.246-17.575L57.25 299.07l17.11-4.199Zm34.528-116.488 9.175 14.93 17.262 4.195-11.508 13.379 1.403 17.727-16.333-6.844-16.332 6.844 1.403-17.727-11.512-13.379 17.266-4.195Zm395.976 0 9.336 14.93 17.11 4.195-11.508 13.379 1.398 17.727-16.336-6.844-16.328 6.844 1.402-17.727-11.508-13.379 17.262-4.195Zm-395.976 232.98 9.175 14.934 17.262 4.195-11.508 13.38 1.403 17.574-16.333-6.684-16.332 6.684 1.403-17.575-11.512-13.378 17.266-4.196Zm395.976 0 9.336 14.934 17.11 4.195-11.508 13.38 1.398 17.574-16.336-6.684-16.328 6.684 1.402-17.575-11.508-13.378 17.262-4.196ZM199.56 81.954l9.336 14.934L226 101.082l-11.508 13.379 1.399 17.574-16.332-6.691-16.329 6.691 1.399-17.574-11.356-13.379 17.114-4.195Zm232.984 0 9.18 14.934 17.261 4.195-11.507 13.379 1.398 17.574-16.328-6.691-16.336 6.691 1.402-17.574-11.508-13.379 17.266-4.195Zm-232.984 395.98 9.336 14.934L226 497.062l-11.508 13.375 1.399 17.575-16.332-6.684-16.329 6.684 1.399-17.574-11.356-13.375 17.114-4.196Zm232.984 0 9.18 14.934 17.261 4.195-11.507 13.375 1.398 17.575-16.328-6.684-16.336 6.684 1.402-17.574-11.508-13.375 17.266-4.196Zm0 0"/></g><path fill="#f9f9f9" fill-rule="evenodd" d="M217.914 255.992h26.129v-44.64c0-13.836 5.758-26.282 14.777-35.457 9.176-9.02 21.618-14.778 35.461-14.778h43.547c13.836 0 26.442 5.758 35.461 14.778 9.176 9.175 14.77 21.62 14.77 35.457v44.64h26.289c7.464 0 13.535 6.219 13.535 13.684v97.207c0 35.617-29.082 64.855-64.863 64.855h-93.938c-35.617 0-64.855-29.238-64.855-64.855v-97.207c0-7.465 6.066-13.684 13.687-13.684m47.281 0h101.72v-44.64c0-7.938-3.267-15.243-8.56-20.528-5.285-5.293-12.44-8.554-20.527-8.554h-43.547c-7.933 0-15.246 3.261-20.531 8.554-5.29 5.285-8.555 12.59-8.555 20.528Zm50.86 48.211c13.527 0 24.574 10.89 24.574 24.418 0 9.8-5.754 18.352-14 22.238v43.395H305.48v-43.395c-8.246-3.886-14-12.437-14-22.238 0-13.527 11.043-24.418 24.575-24.418m0 0"/><path fill="#2d5465" d="M226.879 730.634v-12.61h20.812v37.094q-15.035 2.421-24.375 2.422-16.705.001-22.953-8.922-6.251-8.935-6.25-28.375c0-12.957 2.164-22.304 6.5-28.046q6.516-8.625 22.172-8.625 9.781 0 21.125 2.203l3.781.734-.422 11.25c-8.406-.914-15.293-1.375-20.656-1.375-5.355 0-9.12.633-11.297 1.89q-3.252 1.892-4.78 7-1.518 5.1-1.517 17.438 0 12.346 3.047 17.281 3.048 4.939 12.61 4.938l8.718-.422v-13.875ZM285.397 756.275h-24.046v-71.438h24.046c6.165 0 11.243.649 15.235 1.938q6 1.94 9.297 6.406 3.311 4.469 4.578 10.516 1.265 6.034 1.265 15.703 0 9.657-1.156 16.015-1.16 6.363-4.36 11.36-3.204 4.987-9.296 7.25-6.094 2.25-15.563 2.25m15.235-28.36q.217-3.374.219-9.297 0-5.935-.422-9.515-.424-3.575-2-6.516-1.58-2.935-4.672-4.031-3.096-1.109-8.36-1.11h-9.562v46.22h9.562c5.258 0 9.079-1.329 11.454-3.985q3.044-3.264 3.78-11.766M354.643 735.478h-11.78v20.797h-14.485v-71.438h26.265q25.42 0 25.422 24.797 0 12.504-6.468 19.172-6.457 6.673-18.954 6.672m-11.78-12.406h11.671q10.812.002 10.813-13.438 0-6.621-2.625-9.516-2.626-2.889-8.188-2.89h-11.672ZM404.741 732.322v23.953h-14.484v-71.438h27.734q25.203 0 25.204 23.531 0 13.971-10.5 20.594l10.187 27.313h-15.86l-8.296-23.953Zm13.454-12.407q5.154 0 7.671-3.14 2.515-3.153 2.516-8.297-.002-5.157-2.687-8.203-2.675-3.048-7.704-3.047h-13.25v22.687Zm0 0"/></svg>