<svg xmlns="http://www.w3.org/2000/svg" width="850" height="1080" version="1.0" viewBox="0 0 637.5 810"><defs><clipPath id="a"><path d="M204 100.117h220V546H204Zm0 0"/></clipPath><clipPath id="b"><path d="M0 0h295v162H0z"/></clipPath></defs><path fill="#133d4d" fill-rule="evenodd" d="M382.71 110.035c47.763 15.406 88.505 46.434 116.216 87.059h-66.348c-8.156-24.684-19.367-48.617-34.316-68.899-4.727-6.414-9.918-12.539-15.547-18.16Zm-187.347 87.059h-66.347c27.71-40.625 68.453-71.653 116.214-87.059-5.632 5.621-10.82 11.746-15.55 18.16-14.95 20.282-26.16 44.215-34.317 68.899m316.055 20.633a223 223 0 0 1 12.562 27.972h-79.105l-.754-3.902a373 373 0 0 0-5.453-24.07ZM183.07 245.699h-79.105a222 222 0 0 1 12.558-27.972h72.754a374 374 0 0 0-5.453 24.07Zm340.91 154.61a222 222 0 0 1-12.562 27.972h-72.75a374 374 0 0 0 5.453-24.07l.754-3.902ZM189.273 428.28h-72.75a222 222 0 0 1-12.558-27.972h79.105l.75 3.902a376 376 0 0 0 5.453 24.07m309.653 20.63c-27.707 40.628-68.453 71.655-116.215 87.062 5.633-5.621 10.824-11.746 15.55-18.16 14.95-20.282 26.16-44.215 34.317-68.903Zm-303.563 0h-66.347c27.71 40.628 68.453 71.655 116.214 87.062-5.628-5.621-10.82-11.746-15.55-18.16-14.95-20.282-26.16-44.215-34.317-68.903m0 0"/><g clip-path="url(#a)"><path fill="#133d4d" fill-rule="evenodd" d="M324.29 100.145c35.929 5.996 67.21 43.007 86.46 96.949h-86.46Zm93 117.582a348 348 0 0 1 6.573 27.972H324.29v-27.972Zm-113.634 27.972h-99.578a350 350 0 0 1 6.574-27.972h93.004Zm-86.465-48.605c19.254-53.942 50.532-90.953 86.465-96.95v96.95Zm206.672 203.215a350 350 0 0 1-6.531 27.82h-93.043v-27.82Zm-13.058 48.453c-19.246 54.023-50.551 91.101-86.516 97.101v-97.101Zm-107.149 97.101c-35.965-6-67.27-43.078-86.52-97.101h86.52ZM210.61 428.13a350 350 0 0 1-6.53-27.82h99.577v27.82Zm0 0"/></g><path fill="#466c7e" fill-rule="evenodd" d="M0 266.332h637l-81.52 57.387L637 379.676H0l72.465-54.442Zm361.34 18.059c-10.723 0-20.434 4.347-27.465 11.375-7.027 7.03-11.375 16.742-11.375 27.464 0 10.727 4.348 20.438 11.375 27.465 7.031 7.032 16.742 11.38 27.465 11.38 10.726 0 20.437-4.348 27.465-11.38 7.027-7.027 11.379-16.738 11.379-27.465 0-10.722-4.352-20.433-11.38-27.464-7.027-7.028-16.738-11.375-27.464-11.375m12.879 25.964a18.17 18.17 0 0 0-12.88-5.332c-5.026 0-9.581 2.04-12.874 5.332a18.15 18.15 0 0 0-5.336 12.88 18.16 18.16 0 0 0 5.336 12.878 18.16 18.16 0 0 0 12.875 5.332c5.031 0 9.582-2.039 12.879-5.332a18.17 18.17 0 0 0 5.332-12.879c0-5.03-2.04-9.586-5.332-12.879M314.079 295c-2.31-3.297-5.349-5.988-8.856-7.812a24.66 24.66 0 0 0-11.434-2.797c-6.848 0-13.047 2.777-17.539 7.265a24.72 24.72 0 0 0-7.262 17.535c0 6.61 2.621 12.61 6.625 17.008 4.371 4.809 10.492 7.793 16.867 7.793.457 0 1.063.395 1.633 1.028a4.67 4.67 0 0 1 1.227 3.144 4.16 4.16 0 0 1-1.219 2.95 4.16 4.16 0 0 1-2.953 1.222c-.703 0-1.36-.168-1.922-.461-.644-.336-1.168-.777-1.523-1.285-3.25-4.652-9.653-5.79-14.305-2.54s-5.79 9.653-2.54 14.305c2.313 3.297 5.352 5.993 8.856 7.817a24.7 24.7 0 0 0 11.434 2.797 24.73 24.73 0 0 0 17.539-7.266 24.73 24.73 0 0 0 7.266-17.539c0-6.61-2.625-12.605-6.625-17.008-4.371-4.804-10.496-7.793-16.868-7.793-.46 0-1.062-.394-1.636-1.023a4.68 4.68 0 0 1-1.227-3.145 4.16 4.16 0 0 1 4.172-4.172c.703 0 1.36.164 1.922.457.644.336 1.168.782 1.523 1.29 3.25 4.648 9.657 5.785 14.305 2.539 4.652-3.25 5.79-9.657 2.54-14.309m-81.622-.293v57.711c0 5.695 4.621 10.316 10.316 10.316 5.7 0 10.317-4.62 10.317-10.316v-57.711c0-5.7-4.617-10.316-10.317-10.316-5.695 0-10.316 4.617-10.316 10.316m0 0"/><g fill="#133d4d" clip-path="url(#b)" transform="translate(171 584)"><path d="M52.206 118.962H7.237v-12.296L22.05 91.65q7.875-8.092 10.968-12.39c2.07-2.876 3.11-5.942 3.11-9.204q0-4.887-2.578-6.875-2.565-1.999-7.297-2-7.034.001-15.344 1.25l-2.516.328-.734-11.25c6.863-2.101 13.973-3.156 21.328-3.156q22.062 0 22.063 19.86-.002 7.78-3.36 13.453-3.363 5.671-12.187 13.765l-12.078 10.922h28.78ZM66.495 62.54V49.62h44.329v16.39l-24.688 54.219-13.437-3.781L96.339 65.9v-3.36ZM127.379 56.978q6.778-8.625 20.125-8.625 13.34 0 20.11 8.625 6.78 8.611 6.78 27.688-.001 19.064-6.734 27.312-6.72 8.25-20.172 8.25-13.44 0-20.172-8.25-6.72-8.249-6.719-27.312c0-12.72 2.258-21.946 6.782-27.688m32.093 27.375q-.002-12.984-2.734-18.187-2.718-5.204-9.187-5.204-6.457.002-9.25 5.266-2.783 5.251-2.782 18.172c0 8.617.942 14.64 2.828 18.078 1.895 3.43 4.977 5.14 9.25 5.14 4.282 0 7.329-1.71 9.141-5.14 1.82-3.437 2.734-9.477 2.734-18.125M186.215 56.978q6.779-8.625 20.125-8.625 13.342 0 20.11 8.625 6.78 8.611 6.78 27.688 0 19.064-6.734 27.312-6.72 8.25-20.171 8.25-13.44 0-20.172-8.25-6.72-8.249-6.72-27.312c0-12.72 2.259-21.946 6.782-27.688m32.094 27.375q-.002-12.984-2.734-18.187-2.719-5.204-9.188-5.204-6.457.002-9.25 5.266-2.782 5.251-2.781 18.172c0 8.617.941 14.64 2.828 18.078 1.894 3.43 4.976 5.14 9.25 5.14 4.281 0 7.328-1.71 9.14-5.14 1.82-3.437 2.735-9.477 2.735-18.125M279.677 49.619v69.343h-14.5V66.01l-15.032 9.672-6.61-10.828 22.892-15.234Zm0 0"/></g></svg>