<svg xmlns="http://www.w3.org/2000/svg" width="850" height="1080" version="1.0" viewBox="0 0 637.5 810"><defs><clipPath id="a"><path d="M0 86.5h450V650H0Zm0 0"/></clipPath><clipPath id="b"><path d="M517 604h120v119.5H517Zm0 0"/></clipPath></defs><g clip-path="url(#a)"><path fill="#2d5465" fill-rule="evenodd" d="M.055 255.473v356.175c0 21.07 17.136 38.207 38.207 38.207h373.062c11.543 0 22.074-5.187 29.164-13.59a143.4 143.4 0 0 1-30.289 3.227c-33.926 0-67.847-11.972-94.812-35.91a8 8 0 0 1-1.742.195H48.415a8.34 8.34 0 0 1-8.345-8.343c0-4.606 3.727-8.348 8.344-8.348H299.5a142.1 142.1 0 0 1-20.93-34.559H48.414a8.336 8.336 0 0 1-8.344-8.347 8.33 8.33 0 0 1 8.344-8.344h224.274c-3.16-11.14-4.965-22.711-5.344-34.547H48.414c-4.617 0-8.344-3.742-8.344-8.348a8.34 8.34 0 0 1 8.344-8.343h219.363c.989-11.891 3.422-23.477 7.23-34.563h-31.874c-4.606 0-8.348-3.726-8.348-8.344V285.348a8.346 8.346 0 0 1 8.348-8.348h60.695a8.345 8.345 0 0 1 8.344 8.348v107.289a142 142 0 0 1 19.973-15.774V192.676c0-4.606 3.742-8.344 8.343-8.344h60.696c4.605 0 8.347 3.738 8.347 8.344v161.043h.668c13.488 0 26.703 1.879 39.332 5.469V124.707c0-21.07-17.136-38.207-38.207-38.207H169.027c-21.07 0-38.218 17.137-38.218 38.207v37.648c0 30.278-24.618 54.91-54.899 54.91H38.262c-21.07 0-38.207 17.137-38.207 38.208m145.718-18.887h60.68a8.333 8.333 0 0 1 8.348 8.344V441.69a8.333 8.333 0 0 1-8.348 8.344h-60.68a8.33 8.33 0 0 1-8.343-8.344V244.93a8.33 8.33 0 0 1 8.343-8.344m-97.359 68.582h60.684a8.33 8.33 0 0 1 8.343 8.344v128.18a8.33 8.33 0 0 1-8.343 8.343H48.414a8.33 8.33 0 0 1-8.344-8.344v-128.18a8.33 8.33 0 0 1 8.344-8.343m0 0"/></g><path fill="#2d5465" fill-rule="evenodd" d="M38.262 200.574H75.91c21.074 0 38.207-17.148 38.207-38.219v-37.648c0-13.422 4.856-25.73 12.895-35.273-4.617 1.921-8.832 4.812-12.715 8.695L11.684 200.742c-3.883 3.883-6.774 8.094-8.692 12.711 9.54-8.039 21.848-12.879 35.27-12.879m0 0"/><path fill="#2d5465" d="M56.762 321.855h43.988v111.489H56.762ZM154.117 253.273h43.992v180.07h-43.992Zm0 0"/><path fill="#2d5465" fill-rule="evenodd" d="M251.477 293.691v139.653h30.5a140.8 140.8 0 0 1 13.503-22V293.69ZM348.836 201.02v166.457a141.6 141.6 0 0 1 44.004-12.727V201.02ZM483.453 423.371c40.402 40.406 40.402 106.137 0 146.527-20.195 20.192-46.73 30.305-73.254 30.305-26.523 0-53.062-10.098-73.27-30.305-40.39-40.39-40.39-106.12 0-146.527 40.403-40.387 106.134-40.387 146.524 0m16.008-15.992c-23.852-23.852-55.55-36.984-89.262-36.984-33.715 0-65.426 13.132-89.265 36.984-23.852 23.84-36.98 55.535-36.98 89.262 0 33.73 13.128 65.425 36.98 89.265 24.605 24.602 56.941 36.91 89.265 36.91 32.32 0 64.645-12.293 89.262-36.91 23.84-23.84 36.969-55.55 36.969-89.265 0-33.711-13.13-65.422-36.97-89.262m0 0"/><path fill="#2d5465" fill-rule="evenodd" d="M471.66 558.102c33.88-33.895 33.88-89.04 0-122.922-33.894-33.895-89.043-33.895-122.922 0-33.894 33.882-33.894 89.027 0 122.922 16.938 16.941 39.207 25.41 61.461 25.41 22.25 0 44.504-8.469 61.461-25.41m-16.414-80.5-49.875 49.875a8.3 8.3 0 0 1-5.898 2.449 8.3 8.3 0 0 1-5.895-2.45l-28.441-28.44c-3.258-3.255-3.258-8.54 0-11.798a8.337 8.337 0 0 1 11.804 0l22.532 22.532 43.98-43.961a8.315 8.315 0 0 1 11.793 0 8.315 8.315 0 0 1 0 11.793m0 0"/><g clip-path="url(#b)"><path fill="#2d5465" fill-rule="evenodd" d="M565.875 607.727c-2.324-2.336-5.453-3.618-8.793-3.618-3.336 0-6.465 1.282-8.805 3.618l-26.992 26.996c-4.855 4.855-4.855 12.754 0 17.593l67.55 67.567c4.856 4.855 12.755 4.855 17.61 0l26.996-26.996c4.852-4.852 4.852-12.754 0-17.606Zm0 0"/></g><path fill="#2d5465" fill-rule="evenodd" d="m512.59 619.828 20.793-20.793-12.254-12.254a142 142 0 0 1-9.875 10.918c-3.504 3.52-7.149 6.801-10.918 9.875Zm0 0"/><path fill="#2d5465" d="M145.036 134.832v-1.828h1.296v1.828Zm0 0"/></svg>