<svg xmlns="http://www.w3.org/2000/svg" width="850" height="1080" version="1.0" viewBox="0 0 637.5 810"><defs><clipPath id="a"><path d="M1 14.203h635V795.84H1Zm0 0"/></clipPath></defs><g clip-path="url(#a)"><path fill="#2d5465" d="M630.414 161.293A977 977 0 0 1 458.38 95.535a959.6 959.6 0 0 1-135.695-79.89 7.3 7.3 0 0 0-1.993-.965 7.3 7.3 0 0 0-2.191-.332q-1.12-.001-2.187.332a7.3 7.3 0 0 0-1.997.965 1001 1001 0 0 1-135.984 79.89A989 989 0 0 1 6.586 161.293a7 7 0 0 0-2.129.965 7.1 7.1 0 0 0-1.707 1.594 7.1 7.1 0 0 0-1.11 2.058 7.1 7.1 0 0 0-.39 2.305v212.41a464 464 0 0 0 6.633 76.863 418 418 0 0 0 6.015 29.285 418 418 0 0 0 8.086 28.782 419.512 419.512 0 0 0 22.21 55.473 419 419 0 0 0 29.872 51.75 419.867 419.867 0 0 0 36.922 46.98c1.301 1.297 2.453 2.594 3.606 3.75 2.02 2.16 4.039 4.324 5.77 5.91a443 443 0 0 0 20.495 19.672 445.4 445.4 0 0 0 93.196 64.515 450 450 0 0 0 25.629 12.258 446 446 0 0 0 53.336 19.496 8.4 8.4 0 0 0 2.02.29h6.487a11.3 11.3 0 0 0 2.02-.29 443 443 0 0 0 26.988-8.859 444 444 0 0 0 26.371-10.559 448 448 0 0 0 25.645-12.218 449 449 0 0 0 24.812-13.828 447 447 0 0 0 46.735-32.254 447 447 0 0 0 21.73-18.293 443 443 0 0 0 20.52-19.641c2.308-2.164 4.472-4.613 6.636-7.066l2.739-3.172A419.57 419.57 0 0 0 578.46 597.3a421 421 0 0 0 14.008-26.356 418 418 0 0 0 12.097-27.285 420 420 0 0 0 10.125-28.074 418 418 0 0 0 8.102-28.727 418 418 0 0 0 6.035-29.226 443.4 443.4 0 0 0 6.922-77.008v-212.41c-.02-.79-.16-1.55-.422-2.29a7.405 7.405 0 0 0-2.809-3.645 7.4 7.4 0 0 0-2.105-.987m-9.082 219.332c-.039 25-2.25 49.8-6.637 74.41a404 404 0 0 1-13.672 56.016 405.882 405.882 0 0 1-21.477 53.512 405 405 0 0 1-13.538 25.472 405 405 0 0 1-15.317 24.45 408 408 0 0 1-17.011 23.296 405 405 0 0 1-18.63 22.028l-3.027 3.316a56.6 56.6 0 0 1-5.77 6.2 429 429 0 0 1-40.702 36.69 428 428 0 0 1-45.047 31.204 428 428 0 0 1-48.656 25.207 428 428 0 0 1-51.473 18.8h-4.328a429 429 0 0 1-51.406-18.898 429.686 429.686 0 0 1-93.559-56.555 429 429 0 0 1-40.625-36.738 62 62 0 0 1-5.336-5.336c-1.297-1.441-2.594-2.738-3.75-3.89a408 408 0 0 1-18.558-22.051 404 404 0 0 1-16.95-23.313 405 405 0 0 1-15.254-24.457 405.4 405.4 0 0 1-25.12-51.843 407 407 0 0 1-9.739-27.125 407 407 0 0 1-7.79-27.75 404 404 0 0 1-5.8-28.235 434.7 434.7 0 0 1-6.488-74.41V173.691a1007 1007 0 0 0 169.008-65.18 1036.6 1036.6 0 0 0 133.82-78.16 1001 1001 0 0 0 133.535 78.16 998.5 998.5 0 0 0 169.297 65.18Zm0 0"/></g><path fill="#2d5465" d="M322.105 139.082a7.07 7.07 0 0 0-3.75-1.082q-.995.001-1.949.277a7 7 0 0 0-1.8.805c-30.137 18.316-59.7 34.465-90.415 49.32A1073 1073 0 0 1 109.691 237a7.464 7.464 0 0 0-3.527 2.695 7.4 7.4 0 0 0-1.012 2.008 7.5 7.5 0 0 0-.363 2.219v136.703a322 322 0 0 0 1.059 29.836q1.218 14.895 3.808 29.61a323 323 0 0 0 6.528 29.132 321 321 0 0 0 9.187 28.406 323 323 0 0 0 26.024 53.664 323 323 0 0 0 35.445 47.97l7.789 8.073a335 335 0 0 0 26.844 24.739 335.922 335.922 0 0 0 60.926 40.04 335 335 0 0 0 33.363 14.823q2.595.891 5.191 0a344 344 0 0 0 33.934-15.262 343.5 343.5 0 0 0 61.937-41.054 342 342 0 0 0 27.278-25.305c2.02-2.164 4.039-4.469 6.347-6.777a323.512 323.512 0 0 0 35.266-47.84 324 324 0 0 0 14.187-26.149 324 324 0 0 0 11.723-27.343 323 323 0 0 0 9.156-28.305 323.028 323.028 0 0 0 11.43-88.258V243.922a7.28 7.28 0 0 0-1.379-4.164 7.3 7.3 0 0 0-3.523-2.613 1069 1069 0 0 1-114.067-48.31c-31.293-15.144-61.14-31.437-91.137-49.753m78.016 346.527h31.293a14.24 14.24 0 0 0 10.11-4.164 14.158 14.158 0 0 0 3.094-4.64c.359-.868.624-1.762.808-2.684q.268-1.383.262-2.789.012-.708.16-1.398a7.417 7.417 0 0 1 1.09-2.582q.397-.587.894-1.086a7.4 7.4 0 0 1 2.324-1.566 7.4 7.4 0 0 1 2.742-.579q.71.001 1.407.137.699.14 1.355.414.656.27 1.246.664c.39.262.758.562 1.09.898a7.1 7.1 0 0 1 1.563 2.336 7.15 7.15 0 0 1 .55 2.762q0 1.412-.136 2.813-.136 1.404-.414 2.785a29 29 0 0 1-.68 2.734q-.41 1.347-.95 2.652a30 30 0 0 1-1.202 2.547 29 29 0 0 1-3.125 4.676 28.992 28.992 0 0 1-3.98 3.98 28.7 28.7 0 0 1-4.68 3.126q-1.243.662-2.544 1.203-1.304.538-2.652.949-1.352.409-2.734.683-1.384.276-2.785.41-1.406.139-2.813.137h-31.293a30 30 0 0 1-2.82-.136 29 29 0 0 1-8.184-2.043 29 29 0 0 1-2.555-1.203 30 30 0 0 1-2.421-1.446 31 31 0 0 1-2.27-1.676 30 30 0 0 1-2.094-1.89q-1.001-.997-1.898-2.086a29.147 29.147 0 0 1-3.148-4.676 29.027 29.027 0 0 1-2.176-5.2 29.131 29.131 0 0 1-1.125-5.523 31 31 0 0 1-.153-2.816V336.5q.007-1.418.149-2.824.14-1.407.422-2.797.281-1.389.691-2.742.417-1.355.957-2.66a29.4 29.4 0 0 1 2.672-4.98 28.9 28.9 0 0 1 5.68-6.267 28 28 0 0 1 2.27-1.683 28 28 0 0 1 2.425-1.457 28 28 0 0 1 2.555-1.211 28 28 0 0 1 2.66-.957 28.8 28.8 0 0 1 8.363-1.262h31.293a28 28 0 0 1 2.816.152 28.894 28.894 0 0 1 5.523 1.121q1.348.416 2.653.962 1.3.546 2.547 1.214a29.2 29.2 0 0 1 6.762 5.047 29 29 0 0 1 6.215 9.34q.534 1.308.945 2.656a29 29 0 0 1 1.234 8.348q0 .709-.136 1.406a7 7 0 0 1-.414 1.352c-.18.437-.403.855-.664 1.246a7.283 7.283 0 0 1-1.988 1.992 7.2 7.2 0 0 1-2.602 1.074q-.697.14-1.407.14a7.3 7.3 0 0 1-2.742-.577 7.6 7.6 0 0 1-1.238-.672 7.7 7.7 0 0 1-1.086-.895 7.7 7.7 0 0 1-.894-1.086 7.4 7.4 0 0 1-1.25-3.98 14 14 0 0 0-.258-2.8 14.5 14.5 0 0 0-.801-2.7 14.4 14.4 0 0 0-1.313-2.488 14.6 14.6 0 0 0-1.773-2.184 14.45 14.45 0 0 0-4.645-3.133 14.3 14.3 0 0 0-2.687-.828 14.3 14.3 0 0 0-2.797-.289h-31.293A14.425 14.425 0 0 0 385.7 336.5v134.832q.007 1.413.29 2.797a14.252 14.252 0 0 0 2.164 5.164 14.2 14.2 0 0 0 1.796 2.168 14.279 14.279 0 0 0 7.371 3.887c.922.18 1.86.265 2.801.261m-223.23 9.516q0-.709.14-1.406.135-.696.41-1.352c.18-.437.403-.855.664-1.246a7.3 7.3 0 0 1 1.989-1.992 7.2 7.2 0 0 1 1.25-.664q.655-.275 1.351-.41.697-.14 1.407-.14h34.753a29 29 0 0 0 2.711-.142 27.553 27.553 0 0 0 5.313-1.074q1.3-.397 2.555-.918a28 28 0 0 0 2.453-1.164q1.196-.643 2.328-1.398a27.862 27.862 0 0 0 6.012-5.453 28 28 0 0 0 1.617-2.18c.504-.754.972-1.527 1.398-2.328q.644-1.195 1.164-2.45a27.611 27.611 0 0 0 1.586-5.187q.271-1.33.406-2.684.14-1.349.145-2.71v-20.332c0-.907-.047-1.813-.133-2.715a28 28 0 0 0-.398-2.688 29 29 0 0 0-.66-2.633 28.199 28.199 0 0 0-2.078-5.016q-.644-1.2-1.399-2.331a28 28 0 0 0-1.617-2.18 27 27 0 0 0-1.824-2.016q-.961-.961-2.016-1.824a27.6 27.6 0 0 0-6.969-4.176 28 28 0 0 0-2.558-.918 29 29 0 0 0-2.633-.66 28 28 0 0 0-2.688-.398 29 29 0 0 0-2.715-.133 43 43 0 0 1-4.117-.215 42.3 42.3 0 0 1-11.949-3.035 42 42 0 0 1-3.723-1.773 42 42 0 0 1-6.84-4.59 43 43 0 0 1-3.05-2.774 44 44 0 0 1-2.762-3.058 43 43 0 0 1-2.453-3.317 42.657 42.657 0 0 1-3.875-7.266 43 43 0 0 1-1.387-3.882 42.413 42.413 0 0 1-1.605-8.078 43 43 0 0 1-.203-4.117v-20.336q.002-2.061.203-4.118a42.4 42.4 0 0 1 1.605-8.078q.6-1.974 1.387-3.882a42.7 42.7 0 0 1 3.875-7.266 43 43 0 0 1 2.453-3.317 44 44 0 0 1 2.762-3.058 42.5 42.5 0 0 1 6.36-5.238 41 41 0 0 1 3.53-2.125 42 42 0 0 1 3.723-1.774 43 43 0 0 1 3.875-1.402 42.7 42.7 0 0 1 8.074-1.633 43 43 0 0 1 4.117-.215h34.899q.709.001 1.406.137.696.14 1.352.41a7.288 7.288 0 0 1 2.34 1.563 7.3 7.3 0 0 1 1.972 3.69c.094.466.137.935.137 1.411q.002.71-.137 1.406-.14.696-.41 1.352-.27.654-.668 1.246a7.3 7.3 0 0 1-.894 1.094 7.3 7.3 0 0 1-3.692 1.972 7 7 0 0 1-1.406.137h-34.899q-1.354.011-2.703.156-1.347.14-2.672.414c-.886.18-1.761.407-2.62.672q-1.296.404-2.544.926-1.253.527-2.441 1.172a27.444 27.444 0 0 0-4.484 3.02 28 28 0 0 0-2 1.824 27.6 27.6 0 0 0-3.422 4.183q-.752 1.13-1.387 2.325a27 27 0 0 0-1.156 2.445 27 27 0 0 0-.914 2.547 28 28 0 0 0-1.063 5.3q-.136 1.349-.137 2.704v20.336q0 1.354.13 2.703.129 1.351.394 2.68a27.5 27.5 0 0 0 2.715 7.632 29 29 0 0 0 1.387 2.328q.752 1.125 1.609 2.18a28 28 0 0 0 1.816 2.012 29 29 0 0 0 2 1.824 28 28 0 0 0 4.492 3.02q1.19.644 2.446 1.164 1.247.525 2.547.921 1.294.4 2.625.668 1.328.27 2.675.41c.903.09 1.801.141 2.707.141a42.402 42.402 0 0 1 8.21.816c1.353.274 2.689.606 4.01 1.008a43 43 0 0 1 3.886 1.395 41 41 0 0 1 3.734 1.77 41 41 0 0 1 3.543 2.124 42 42 0 0 1 3.317 2.461 42 42 0 0 1 10.422 12.696 41 41 0 0 1 1.77 3.734 43 43 0 0 1 1.394 3.887q.598 1.98 1.004 4.008.41 2.027.609 4.086a42 42 0 0 1 .207 4.125v20.332q0 2.066-.207 4.128a42.542 42.542 0 0 1-1.613 8.09 43 43 0 0 1-1.395 3.89 42 42 0 0 1-1.77 3.735 42 42 0 0 1-2.124 3.54 41.7 41.7 0 0 1-5.235 6.378 42.05 42.05 0 0 1-13.656 9.13q-1.911.795-3.887 1.394-1.98.603-4.008 1.008a42.4 42.4 0 0 1-8.21.816h-34.754q-.71 0-1.407-.14a7 7 0 0 1-1.351-.41 7.2 7.2 0 0 1-1.25-.665 7.3 7.3 0 0 1-1.09-.898 7.3 7.3 0 0 1-.899-1.09 7.2 7.2 0 0 1-.664-1.25 7 7 0 0 1-.41-1.352 7 7 0 0 1-.14-1.406m92.437-39.367V352.074c0-1.453.07-2.906.211-4.351a44.5 44.5 0 0 1 7.274-20.325 45 45 0 0 1 2.593-3.5 45 45 0 0 1 2.93-3.23 44 44 0 0 1 3.23-2.926 43 43 0 0 1 3.5-2.597 44 44 0 0 1 7.68-4.106 45 45 0 0 1 4.102-1.469 45 45 0 0 1 8.539-1.699 45 45 0 0 1 8.707 0q2.173.219 4.312.64 2.14.427 4.227 1.06a44.6 44.6 0 0 1 8.047 3.331 44.314 44.314 0 0 1 7.238 4.84 44.083 44.083 0 0 1 6.156 6.156 44.167 44.167 0 0 1 4.836 7.238 44 44 0 0 1 1.867 3.942 45 45 0 0 1 2.528 8.332c.28 1.426.496 2.863.636 4.313.145 1.445.215 2.898.215 4.351v103.684c0 1.453-.07 2.906-.215 4.351a43.703 43.703 0 0 1-1.7 8.54 45 45 0 0 1-1.464 4.105 45 45 0 0 1-4.105 7.68 45 45 0 0 1-2.598 3.5 44 44 0 0 1-6.156 6.156 45 45 0 0 1-3.5 2.598 45 45 0 0 1-3.738 2.242 46 46 0 0 1-3.942 1.863 46 46 0 0 1-4.105 1.469q-2.087.632-4.227 1.058a45 45 0 0 1-4.312.637 44 44 0 0 1-4.352.215 44.565 44.565 0 0 1-8.664-.852 45 45 0 0 1-4.23-1.058 46 46 0 0 1-4.102-1.469 44.004 44.004 0 0 1-7.68-4.105 44 44 0 0 1-3.5-2.598 44 44 0 0 1-3.23-2.926 45 45 0 0 1-2.93-3.23 45 45 0 0 1-2.594-3.5 45 45 0 0 1-2.242-3.739 44.607 44.607 0 0 1-4.39-12.273 45 45 0 0 1-.64-4.313 45 45 0 0 1-.212-4.351m0 0"/><path fill="#2d5465" d="M313.742 322.078a31 31 0 0 0-2.937.152 29 29 0 0 0-2.91.438 30 30 0 0 0-5.622 1.715 30 30 0 0 0-7.543 4.527 29 29 0 0 0-2.175 1.977 28 28 0 0 0-1.977 2.18 29.958 29.958 0 0 0-5.523 10.309c-.285.937-.528 1.89-.72 2.85q-.29 1.447-.437 2.91a31 31 0 0 0-.152 2.938v103.684q.001 1.47.145 2.941.146 1.465.433 2.91a30 30 0 0 0 1.707 5.625q.562 1.364 1.258 2.664c.461.864.969 1.707 1.512 2.524a31 31 0 0 0 1.754 2.363 29.976 29.976 0 0 0 4.16 4.16 30 30 0 0 0 2.363 1.75q1.224.82 2.524 1.516c.867.46 1.753.883 2.66 1.258q1.363.564 2.773.992 1.407.427 2.856.715c.96.191 1.933.336 2.91.433.976.094 1.957.145 2.941.145q1.471-.001 2.938-.145 1.468-.146 2.914-.433 1.442-.288 2.855-.715a30.4 30.4 0 0 0 5.43-2.25q1.301-.696 2.527-1.516a29.5 29.5 0 0 0 4.543-3.73 28 28 0 0 0 1.977-2.18 29 29 0 0 0 1.754-2.363q.819-1.227 1.515-2.524a30.1 30.1 0 0 0 2.965-8.289q.289-1.445.43-2.91.145-1.47.144-2.941V352.074q0-1.47-.148-2.937a31 31 0 0 0-.438-2.91 31 31 0 0 0-.718-2.852 32 32 0 0 0-.996-2.77 29 29 0 0 0-1.262-2.656 30 30 0 0 0-1.512-2.523 30.5 30.5 0 0 0-3.73-4.54 29.8 29.8 0 0 0-4.543-3.73 30 30 0 0 0-2.52-1.515c-.867-.461-1.75-.883-2.66-1.258a29 29 0 0 0-2.766-.996 30.2 30.2 0 0 0-8.699-1.309M48.637 240.086c-.477 0-.946.043-1.407.137a7.4 7.4 0 0 0-1.355.41 7.289 7.289 0 0 0-2.34 1.563 7.3 7.3 0 0 0-1.972 3.69q-.136.698-.137 1.407v77.223q.001.708.136 1.406.141.698.41 1.355.276.656.669 1.246a7.3 7.3 0 0 0 1.988 1.989 7.5 7.5 0 0 0 1.246.668q.657.27 1.355.41a7.3 7.3 0 0 0 2.813 0q.696-.14 1.352-.41a7.5 7.5 0 0 0 1.246-.668 7 7 0 0 0 1.093-.899c.336-.332.633-.699.895-1.09q.398-.59.668-1.246t.41-1.355c.094-.465.137-.934.137-1.406v-77.223c0-.473-.043-.941-.137-1.406a7.5 7.5 0 0 0-.41-1.352 7 7 0 0 0-.668-1.246 7.1 7.1 0 0 0-1.988-1.988 7.2 7.2 0 0 0-2.598-1.078 7 7 0 0 0-1.406-.137M43.543 365.945l-4.871 4.875a7.1 7.1 0 0 0-1.512 2.336 7.4 7.4 0 0 0-.39 1.344c-.086.46-.125.926-.122 1.39q.005.705.145 1.391.145.691.414 1.336.27.651.664 1.23a7.15 7.15 0 0 0 3.2 2.633q.645.27 1.331.41a7.26 7.26 0 0 0 2.785.027 7.2 7.2 0 0 0 2.583-1.03 7 7 0 0 0 1.097-.871l4.871-4.86q.522-.498.926-1.09a7.1 7.1 0 0 0 1.121-2.613q.152-.702.156-1.422a7.2 7.2 0 0 0-.535-2.793 7.222 7.222 0 0 0-5.316-4.348 7.2 7.2 0 0 0-4.203.454q-.663.287-1.254.691-.586.41-1.09.926Zm0 0"/><path fill="#f9f9f9" d="M308.84 600.596V559.11h4.625v41.485ZM323.588 600.596V559.11h4.625v41.485Zm0 0"/></svg>