<svg xmlns="http://www.w3.org/2000/svg" width="850" height="1080" version="1.0" viewBox="0 0 637.5 810"><defs><clipPath id="a"><path d="M539 601h98v98.074h-98Zm0 0"/></clipPath><clipPath id="b"><path d="M0 110.785h500V611H0Zm0 0"/></clipPath></defs><path fill="#2d5465" fill-rule="evenodd" d="M490.172 552.207c32.058-32.059 32.058-84.215 0-116.273-32.059-32.059-84.215-32.059-116.274 0s-32.058 84.214 0 116.273 84.215 32.059 116.274 0m-14.23-88.25a8.315 8.315 0 0 1 0 11.793l-48.415 48.43a8.33 8.33 0 0 1-5.898 2.449 8.27 8.27 0 0 1-5.895-2.45l-27.625-27.62c-3.254-3.254-3.254-8.54 0-11.793 3.27-3.258 8.555-3.258 11.809 0l21.71 21.71 42.52-42.519c3.254-3.254 8.54-3.254 11.793 0m0 0"/><path fill="#2d5465" fill-rule="evenodd" d="M501.965 424.125c38.566 38.566 38.566 101.309 0 139.875-19.277 19.277-44.606 28.93-69.93 28.93-25.328 0-50.656-9.64-69.933-28.93-38.567-38.555-38.567-101.309 0-139.875 38.554-38.57 101.308-38.555 139.863 0m12.754 152.613c45.59-45.59 45.59-119.761 0-165.355-22.797-22.793-52.742-34.184-82.684-34.184-29.945 0-59.89 11.39-82.687 34.184-45.59 45.594-45.59 119.765 0 165.355 45.593 45.594 119.78 45.594 165.37 0m0 0"/><g clip-path="url(#a)"><path fill="#2d5465" fill-rule="evenodd" d="m559.254 601.746-19.516 19.516 73.73 73.726a13.75 13.75 0 0 0 9.762 4.02c3.7 0 7.165-1.434 9.75-4.02 5.383-5.383 5.383-14.133 0-19.511l-73.726-73.743Zm0 0"/></g><path fill="#2d5465" fill-rule="evenodd" d="m527.918 609.465 19.512-19.512-11.653-11.668a134 134 0 0 1-9.265 10.25 133 133 0 0 1-10.262 9.262Zm0 0"/><g clip-path="url(#b)"><path fill="#2d5465" fill-rule="evenodd" d="m276.902 604.07 12.766-29.613a8.35 8.35 0 0 1 5.883-4.852 212 212 0 0 0 22.297-6.175 131 131 0 0 1-10.309-20.946c-18.664 5.938-38.094 8.942-57.898 8.942-105.188 0-190.782-85.578-190.782-190.781 0-105.2 85.594-190.778 190.782-190.778 105.187 0 190.78 85.578 190.78 190.778v.168c20.446 1.265 40.653 7.207 58.872 17.804v-35.773c0-4.313-2.266-7.762-6.215-9.473l-29.64-12.766a8.35 8.35 0 0 1-4.852-5.882c-5.399-24.66-15.063-47.985-28.75-69.336a8.39 8.39 0 0 1-.723-7.594l11.934-30.012c1.598-4.008.765-8.054-2.281-11.101l-25.176-25.16c-3.043-3.043-7.078-3.88-11.098-2.293l-30 11.933a8.39 8.39 0 0 1-7.594-.722c-21.336-13.688-44.66-23.352-69.347-28.762a8.32 8.32 0 0 1-5.883-4.856l-12.766-29.61c-1.699-3.964-5.16-6.233-9.472-6.233h-35.578c-4.313 0-7.762 2.27-9.473 6.234l-12.754 29.61a8.38 8.38 0 0 1-5.883 4.855c-24.699 5.394-48.039 15.074-69.375 28.746a8.3 8.3 0 0 1-7.594.723L96.79 169.227c-4.008-1.586-8.055-.75-11.102 2.293l-25.16 25.16c-3.043 3.047-3.879 7.093-2.293 11.101l11.934 29.985a8.35 8.35 0 0 1-.738 7.593c-13.672 21.336-23.352 44.676-28.746 69.375a8.34 8.34 0 0 1-4.856 5.883l-29.61 12.77c-3.964 1.695-6.234 5.144-6.234 9.472v35.59c0 4.313 2.27 7.762 6.235 9.473l29.636 12.765a8.33 8.33 0 0 1 4.84 5.883c5.399 24.676 15.078 48 28.75 69.348a8.33 8.33 0 0 1 .723 7.582l-11.934 30.012c-1.586 4.008-.75 8.054 2.293 11.101l25.16 25.16c3.047 3.059 7.094 3.88 11.102 2.293l30.012-11.933a8.37 8.37 0 0 1 7.582.722 212.1 212.1 0 0 0 69.36 28.762 8.3 8.3 0 0 1 5.87 4.856l12.766 29.625c1.71 3.949 5.16 6.23 9.473 6.23h35.578c4.312 0 7.773-2.281 9.472-6.23Zm0 0"/></g><path fill="#2d5465" fill-rule="evenodd" d="M75.55 360.645c0 95.996 78.095 174.093 174.09 174.093 18.083 0 35.813-2.742 52.837-8.164a134.7 134.7 0 0 1-2.461-52.715l-46.188 26.735a8.3 8.3 0 0 1-8.348 0l-115.382-66.778a8.33 8.33 0 0 1-4.157-7.214V294.664a8.32 8.32 0 0 1 4.172-7.219l115.383-66.773a8.38 8.38 0 0 1 8.36 0l115.367 66.773a8.34 8.34 0 0 1 4.16 7.22v79.374a133.8 133.8 0 0 1 50.375-13.254v-.152c0-95.996-78.094-174.09-174.09-174.09s-174.09 78.094-174.09 174.09Zm0 0"/><path fill="#2d5465" fill-rule="evenodd" d="m142.617 421.79 98.692 57.12V366.266l-98.692-57.121ZM194.3 269.574l98.708 57.137 15.199-8.79-98.734-57.124ZM276.344 336.348l-98.707-57.121-26.703 15.453 98.707 57.136ZM301.363 341.16v35.996l14.73-8.554.294-36.133Zm0 0"/><path fill="#2d5465" fill-rule="evenodd" d="m333.16 322.762-.402 50.734a8.36 8.36 0 0 1-4.176 7.152l-31.39 18.192a8.5 8.5 0 0 1-4.184 1.113 8.353 8.353 0 0 1-8.348-8.348v-40.793l-26.676 15.438v112.645l47.457-27.47c6.356-18.956 17.036-36.788 32.114-51.863a133.4 133.4 0 0 1 19.11-15.828V309.13l-23.505 13.617ZM324.844 308.281l23.531-13.601-98.734-57.137-23.504 13.602Zm0 0"/><path fill="#2d5465" d="M245.256 155.13v-1.828h1.297v1.828Zm0 0"/></svg>